PathFileType	4	(X/Y/Z)	RBDS017\RBDS017runT45.trc
DataRate	CameraRate	NumFrames	NumMarkers	Units	OrigDataRate	OrigDataStartFrame	OrigNumFrames
150.000000	150.000000	5	33	mm	150.000000	3937	4500
Frame#	Time	L.ASIS			L.Heel.Bottom			L.Heel.Lateral			L.Heel.Top			L.Iliac.Crest			L.MT1			L.MT5			L.PSIS			L.Shank.Bottom.Lateral			L.Shank.Bottom.Medial			L.Shank.Top.Lateral			L.Shank.Top.Medial			L.Thigh.Bottom.Lateral			L.Thigh.Bottom.Medial			L.Thigh.Top.Lateral			L.Thigh.Top.Medial			R.ASIS			R.ASY			R.Heel.Bottom			R.Heel.Lateral			R.Heel.Top			R.Iliac.Crest			R.MT1			R.MT5			R.PSIS			R.Shank.Bottom.Lateral			R.Shank.Bottom.Medial			R.Shank.Top.Lateral			R.Shank.Top.Medial			R.Thigh.Bottom.Lateral			R.Thigh.Bottom.Medial			R.Thigh.Top.Lateral			R.Thigh.Top.Medial			
		X1	Y1	Z1	X2	Y2	Z2	X3	Y3	Z3	X4	Y4	Z4	X5	Y5	Z5	X6	Y6	Z6	X7	Y7	Z7	X8	Y8	Z8	X9	Y9	Z9	X10	Y10	Z10	X11	Y11	Z11	X12	Y12	Z12	X13	Y13	Z13	X14	Y14	Z14	X15	Y15	Z15	X16	Y16	Z16	X17	Y17	Z17	X18	Y18	Z18	X19	Y19	Z19	X20	Y20	Z20	X21	Y21	Z21	X22	Y22	Z22	X23	Y23	Z23	X24	Y24	Z24	X25	Y25	Z25	X26	Y26	Z26	X27	Y27	Z27	X28	Y28	Z28	X29	Y29	Z29	X30	Y30	Z30	X31	Y31	Z31	X32	Y32	Z32	X33	Y33	Z33	

3938	26.24666666666667	2182.88063835652	1000.456676478992	854.7529222418302	1941.140605861823	37.59664688108023	985.2421345063551	1958.818792966395	59.8620971466958	948.6220694641408	1954.87338838011	81.75773942261823	991.9402051022488	2111.568559162587	1091.074426299515	829.693970887559	2172.691635543897	44.14948266389418	985.3462204822285	2116.183286967712	42.86209595659425	882.5609295938875	2018.433564854329	1073.074287941989	968.361538251228	2061.510521590017	178.0311270453	921.418399750707	2019.872769826703	199.7246282176713	950.7039092675153	2084.155995897396	252.4079690317227	899.6990671459833	2043.692818907952	274.2793916460957	928.1536875757413	2185.232384086577	629.0117045736275	842.8426696029782	2125.932707267096	609.6626474614241	879.480337586889	2141.42668046652	729.3327146645684	829.6385342239311	2085.807473773729	711.7884647333349	865.12245977431	2195.143692605493	980.8892846343281	1141.076737699299	1758.346078852746	433.0849232147257	1068.808725805166	1810.759469514118	633.3156265632078	1063.074716676735	1808.49342382322	602.7810835215948	1105.144669944449	1845.271834727999	602.1583764426729	1073.764307960925	2158.96447617496	1072.437201901353	1180.629583962588	1731.030571128239	427.2432812675308	1016.105127684156	1710.451806655726	468.0591407812292	1122.405187440157	2025.690457804042	1064.093535435685	1065.7411098697	1915.430218691319	538.4293063779255	1137.142071558635	1924.136160168059	575.9090502161619	1103.267684529405	1998.24780542144	537.7520511762165	1155.639592807534	2002.968091514447	578.3555994982357	1121.84833367629	2206.894134556223	616.0897896675821	1195.106988054564	2156.712825887502	590.4467738134317	1148.800201728987	2154.961596146969	712.4611059702831	1193.590374039437	2107.521761717449	688.3069257703369	1149.45114885665	
3939	26.25333333333333	2182.936178564318	1000.996193771181	854.5363907396786	1910.426479675284	39.39543060381158	984.8417835554458	1928.222961913304	61.35503162775331	947.9877817687144	1924.049516497587	83.6348608607336	991.0458973299787	2110.227065601496	1092.605589686568	828.7217796009502	2141.743089569405	44.39923150117682	984.9265171534578	2085.427444726703	42.93096672883942	882.3465505130857	2018.33515006959	1075.182821791062	966.6956685345664	2033.493958298568	179.3891262972197	921.0410640387535	1992.390859205193	202.0067361027059	950.3124948353676	2058.134092148893	253.1321319634665	899.6937678473815	2018.157896839425	275.9000527290574	928.0799451385507	2172.363291363686	627.0836432379913	843.773732963416	2111.638632083167	610.0470629075384	879.3891569307608	2132.596714861731	729.0873075576618	830.151496758933	2075.867422394714	713.7503117605665	864.9946067565047	2193.093003334267	983.8150278135626	1142.402906658842	1780.777130621957	418.8363953324977	1069.124237152456	1821.310329840098	621.7675308938951	1065.29388800949	1821.083156309124	590.7502297029097	1107.050837169108	1857.628232903883	592.6402204586482	1075.302242091867	2153.325693781035	1075.08006556051	1181.945383839706	1753.57534594911	411.9166269842101	1016.466697878863	1731.117021521908	450.4308314153024	1123.435706264559	2024.53382353986	1066.320741846198	1064.022320750013	1932.069721301975	531.3213677168516	1137.832921720788	1938.695246351904	569.6964860836503	1104.448263628503	2014.816125200747	534.5544246092954	1156.018529436072	2017.347802167557	575.8262430162523	1122.75495289578	2220.669067956743	623.5563382208684	1194.385536544106	2171.901429812157	595.5075899922067	1147.932235679051	2163.860506235123	717.1489230196785	1193.079587511077	2117.318046040366	690.5171766680338	1149.367672264831	
3940	26.26	2183.608565825763	1002.17851969239	854.8672846995162	1879.74349372585	42.07450853917862	984.356630276333	1897.758041944756	63.53303380174809	947.2209876713529	1893.445151808967	86.34547346875704	989.9822469780623	2109.973475309208	1094.866380863652	827.72978094858	2110.745292742769	44.46508287089091	984.5902635969412	2054.688847806469	42.84265698469334	882.1283656241191	2018.651840049056	1077.870024916113	964.864956609145	2005.321169110159	181.4213647852031	920.4679180073374	1964.743654029704	204.7996593998944	949.8306875287357	2031.662131777131	254.5796310284127	899.5073751596086	1992.15399286601	278.0846967934149	927.912645133133	2158.620179636514	625.9678328405391	844.6774304509978	2096.52941408752	611.4335257064183	879.2632620780059	2123.174716144556	729.5863945789538	830.6720855569314	2065.443595029252	716.6400386716172	864.9352249789417	2191.440051540377	987.6186387276746	1143.862093237142	1803.880751277486	403.5109819222539	1069.739181590943	1831.255257758473	608.5127616342403	1066.584138796759	1833.259977241242	577.4548196755678	1108.209170259992	1869.419068032507	581.7841775375215	1076.086282975464	2148.340738127295	1078.542743870287	1183.084541340562	1776.901443894989	395.0223267794469	1017.215671635624	1752.533415768504	431.6887130321992	1124.588741417298	2023.789800676954	1069.188544504192	1062.298988300056	1948.332878749189	523.7544872123768	1138.147678007397	1952.653196584872	562.837421345575	1105.154057148948	2030.786337988303	531.3976040264167	1156.079479930097	2030.89089509301	573.1317216643379	1123.238496210573	2233.789833121701	632.1932567597372	1193.613845013613	2186.580080406937	601.9628951121932	1146.839910044753	2172.415982328491	722.8905015887971	1192.610567757348	2126.88997513213	693.9441608892247	1149.216597908506	
3941	26.26666666666667	2184.822452247673	1003.996834652749	855.7063915063562	1849.24295803595	45.89742274192993	983.7931224173153	1867.593886259066	66.63639837845055	946.3437878556806	1863.277471608681	90.11192203597724	988.7811935492115	2110.982133843035	1097.763662553751	826.8265185212114	2079.741276798698	44.38217918594511	984.3847079266951	2024.018330546982	42.6679007751285	881.9435966788195	2019.355519987437	1081.07232029069	962.9668429079068	1977.223175247666	184.2771528523168	919.7274949798984	1937.147358903117	208.2656310215903	949.2824376349826	2004.991405577749	256.9239198045573	899.1573981786297	1965.920058462916	281.0182470148505	927.664625573836	2144.162629654323	625.8186606869572	845.5329362482134	2080.85001278699	613.9566276274588	879.1626468014011	2113.265798840787	730.9194762701771	831.1861047195806	2054.706323780288	720.5278181806095	864.9855743000318	2190.251683327893	992.1450146233555	1145.309213741227	1827.71141531235	387.344904278409	1070.683194567586	1840.934684227569	593.5639013020013	1066.942602427349	1845.287287813028	562.9330397679364	1108.614646251501	1880.905165435849	569.5752733583973	1076.124336404214	2144.259670321615	1082.696479648621	1183.97223495216	1801.135099853097	376.848074334776	1018.369740145456	1774.823887070171	412.1234498379632	1125.882855876503	2023.460636475084	1072.640363000983	1060.654772623833	1964.298308680704	515.751884127421	1138.10016446126	1966.142326655603	555.2911256944947	1105.366137958321	2046.17923746918	528.2165362945725	1155.827515514634	2043.66847916178	570.1487768460338	1123.27599123833	2246.136409835615	641.8089988087771	1192.839812661872	2200.545184240184	609.6520827428814	1145.618944431831	2180.584434264307	729.5708052106309	1192.243632145233	2136.138444817599	698.5146075887371	1149.070652548288	
3942	26.27333333333333	2186.484529509699	1006.418765610942	856.9762057416029	1819.127188588021	51.09451065621317	983.1424838982886	1837.935643428945	70.86675197233021	945.3590928662175	1833.79806060735	95.11822566655138	987.4453906659014	2113.347204426356	1101.205096346431	826.1197523155314	2048.797702879703	44.20910517267787	984.3274585673836	1993.481881269799	42.47386708261921	881.8132598905032	2020.415572558768	1084.726456122657	961.0971364320433	1949.437919622612	188.0695874061041	918.8175662925829	1909.839253890837	212.522828081134	948.6694320713324	1978.375676791174	260.2978342505703	898.6438404493091	1939.710607275147	284.8380312846982	927.3402784653863	2129.160971972836	626.7493935098282	846.3162693396514	2064.845016178117	617.7084633691348	879.1366546437072	2102.992255592253	733.1473682889173	831.6762030090474	2043.830702314667	725.4530320013513	865.1737704367563	2189.580442218602	997.2519547987515	1146.603871162305	1852.323158046276	370.5734990188151	1071.9769288708	1850.710887447785	576.9702729801999	1066.421005737596	1857.441184183951	547.2324590541849	1108.305845041014	1892.372837924562	556.0268361912796	1075.468322249415	2141.251973517787	1087.437269458546	1184.573776387092	1826.408189279167	357.7049979727528	1019.935788458833	1798.085551288487	392.011004885308	1127.331587186075	2023.536784847564	1076.617505775904	1059.165474430521	1980.064840160079	507.3328523259996	1137.724685693499	1979.322508924464	547.0237916738313	1105.090541224389	2061.042756833412	524.9358889173967	1155.277578355648	2055.785582700303	566.7537181256483	1122.859275651541	2257.629330334984	652.1898170814502	1192.096707131496	2213.628645089892	618.3749397607949	1144.361929065797	2188.342235069826	737.0562881812052	1192.02515682131	2144.980062296459	704.1255439759894	1148.996275193643	
